<svg version="1.0" xmlns="http://www.w3.org/2000/svg"
 width="531.000000pt" height="597.000000pt" viewBox="0 0 531.000000 597.000000"
 preserveAspectRatio="xMidYMid meet">
<g transform="translate(0.000000,597.000000) scale(0.100000,-0.100000)"
fill="#000000" stroke="none">
<path d="M2160 5963 c-146 -15 -311 -68 -433 -139 -74 -43 -80 -44 -114 -33
-24 8 -74 10 -147 6 -137 -7 -255 -38 -386 -103 l-95 -48 -145 3 c-166 3 -257
-9 -350 -46 -130 -51 -202 -126 -240 -251 -40 -129 -22 -255 79 -562 105 -317
217 -567 368 -822 140 -236 229 -322 333 -322 80 0 123 46 151 159 19 77 14
325 -16 790 -30 473 -29 568 8 641 51 101 135 173 218 189 30 6 53 -2 155 -53
253 -127 456 -197 743 -257 205 -42 694 -91 834 -83 l57 3 -34 72 c-44 91 -96
174 -152 240 -24 28 -44 56 -44 61 0 12 76 26 105 20 23 -4 123 -148 175 -252
22 -43 40 -72 40 -63 0 23 -46 176 -69 230 -13 31 -16 47 -9 47 21 0 103 -96
133 -156 28 -58 28 -62 27 -209 -1 -82 -10 -292 -22 -465 -40 -610 -38 -728
13 -829 30 -61 65 -85 124 -85 89 1 153 51 255 199 199 288 417 785 513 1165
43 173 42 291 -5 397 -26 60 -105 140 -170 173 -112 56 -149 63 -362 66 -194
2 -197 3 -243 29 -161 95 -445 151 -576 115 -33 -9 -42 -7 -101 29 -180 110
-418 165 -618 144z"/>
<path d="M1292 5332 c-33 -77 -62 -183 -69 -247 l-6 -60 36 28 c213 162 545
99 657 -126 26 -51 30 -71 30 -136 -1 -90 -14 -132 -63 -199 -46 -61 -122
-114 -207 -143 -86 -28 -229 -24 -304 10 -27 11 -51 20 -52 18 -12 -12 141
-231 200 -286 14 -14 26 -28 26 -32 0 -6 119 -291 197 -471 16 -37 16 -38 -22
-113 -33 -65 -39 -85 -38 -138 1 -81 32 -154 87 -205 48 -44 138 -82 195 -82
51 0 125 23 172 55 41 26 99 98 99 121 0 14 -103 88 -146 104 -22 9 -25 14
-19 38 3 15 18 44 32 64 29 42 27 72 -4 76 -16 2 -24 -5 -33 -33 -12 -36 -65
-85 -92 -85 -18 0 -61 45 -82 88 -47 92 -22 195 64 276 86 80 180 110 327 104
84 -3 108 -8 164 -35 125 -58 192 -145 192 -247 0 -62 -33 -135 -75 -171 l-30
-26 -32 24 c-17 13 -40 42 -52 63 -13 25 -27 39 -40 39 -30 0 -30 -40 0 -76
37 -44 35 -84 -6 -105 -63 -32 -118 -75 -118 -92 1 -31 69 -111 120 -140 l50
-29 -147 0 c-143 0 -249 -12 -299 -35 -60 -28 -30 -91 57 -122 79 -29 359 -29
438 0 96 34 117 97 43 128 l-37 15 36 0 c102 2 205 64 254 152 26 47 30 64 30
134 0 80 -9 112 -51 177 -17 26 -17 28 41 165 158 378 186 437 225 479 82 89
166 245 205 381 32 109 50 264 32 275 -11 7 -87 12 -87 5 0 -2 5 -29 10 -60
22 -114 -23 -249 -113 -341 -198 -202 -528 -149 -658 105 -28 55 -33 77 -37
156 -3 68 0 106 12 142 21 64 20 71 -5 71 -34 0 -257 48 -374 81 -205 58 -498
180 -662 277 l-51 30 -20 -46z"/>
<path d="M1593 4965 c-34 -24 -47 -76 -29 -118 17 -43 41 -57 94 -57 73 0 114
79 77 149 -8 16 -22 31 -30 35 -30 11 -90 6 -112 -9z"/>
<path d="M1410 4750 c0 -52 41 -112 98 -143 41 -22 62 -27 123 -27 125 0 206
58 217 157 l5 46 -39 -43 c-50 -55 -112 -83 -184 -83 -73 0 -125 24 -177 80
l-43 46 0 -33z"/>
<path d="M488 3415 c-25 -8 -75 -34 -110 -58 -116 -77 -134 -167 -69 -329 37
-91 59 -228 42 -264 -17 -38 -31 -28 -31 24 0 44 -13 82 -24 72 -126 -121
-262 -262 -274 -285 -21 -39 -21 -131 0 -171 39 -73 141 -142 249 -170 138
-35 289 -8 584 108 156 61 140 62 465 -40 762 -241 813 -258 1920 -664 96 -36
202 -78 235 -94 57 -28 60 -31 68 -74 17 -107 29 -150 57 -209 57 -119 181
-254 285 -309 43 -23 63 -27 136 -27 78 0 90 3 135 30 53 33 106 109 125 180
29 104 32 247 8 286 -14 22 -41 -2 -57 -51 -12 -34 -16 -40 -24 -27 -5 11 -5
33 2 59 9 32 36 67 120 154 127 131 163 192 163 274 0 86 -51 171 -134 224
-78 49 -236 40 -425 -25 -150 -51 -212 -69 -241 -69 -43 0 -450 111 -918 250
-319 95 -674 209 -1050 338 -636 218 -634 217 -681 298 -15 25 -42 100 -61
167 -56 197 -143 341 -237 389 -53 28 -189 35 -258 13z m93 -667 c18 -29 42
-64 53 -77 29 -33 150 -90 208 -97 70 -10 67 -21 -7 -29 -70 -7 -120 4 -168
37 -40 29 -95 105 -108 150 -5 22 -13 46 -16 54 -11 30 6 12 38 -38z m3558
-932 c7 -8 11 -20 9 -27 -4 -11 -58 37 -58 53 0 11 33 -6 49 -26z m-245 -652
c43 -24 54 -26 117 -20 38 4 69 5 69 2 0 -14 -63 -36 -102 -36 -51 0 -132 37
-136 63 -4 22 -3 22 52 -9z"/>
<path d="M3790 3419 c-47 -14 -105 -59 -140 -106 -50 -68 -108 -196 -136 -298
-32 -122 -56 -175 -98 -216 -40 -39 -57 -48 -191 -94 -60 -21 -184 -64 -275
-96 -91 -32 -243 -84 -337 -116 -95 -32 -173 -61 -173 -64 0 -4 8 -9 18 -12 9
-2 138 -41 286 -86 l268 -81 223 70 c122 38 234 70 249 70 21 0 176 -53 338
-115 81 -31 199 -55 275 -55 267 1 464 186 376 355 -20 37 -265 285 -283 285
-4 0 -10 -25 -12 -55 -5 -61 -14 -77 -29 -55 -17 25 -1 168 27 245 15 38 33
95 41 125 32 115 -19 205 -153 271 -53 27 -77 32 -151 35 -49 2 -104 -1 -123
-7z m134 -613 c-26 -80 -69 -98 -244 -102 -144 -3 -138 0 49 30 122 20 140 32
166 111 6 20 7 20 21 1 8 -12 11 -29 8 -40z"/>
<path d="M1305 2089 c-334 -96 -484 -132 -527 -125 -22 4 -106 29 -188 57
-314 106 -475 82 -563 -85 -15 -30 -21 -59 -21 -106 -1 -89 33 -148 155 -269
53 -53 103 -110 113 -128 18 -35 22 -108 6 -98 -6 3 -10 15 -10 25 0 10 -11
32 -24 47 -40 46 -51 22 -50 -105 1 -252 111 -392 297 -380 89 5 162 44 252
133 119 117 184 239 205 382 10 77 22 90 100 122 60 24 583 217 850 313 91 32
168 62 173 67 6 6 -576 203 -593 200 -3 0 -81 -23 -175 -50z m-629 -626 c27
-28 50 -43 66 -43 14 0 31 -6 37 -14 19 -23 -15 -40 -81 -41 -53 0 -62 3 -84
28 -25 29 -30 65 -17 128 l6 33 16 -25 c8 -13 34 -43 57 -66z"/>
</g>
</svg>
